<svg xmlns="http://www.w3.org/2000/svg" version="1.1" xmlns:xlink="http://www.w3.org/1999/xlink" xmlns:svgjs="http://svgjs.dev/svgjs" width="1500" height="261" viewBox="0 0 1500 261"><g transform="matrix(1,0,0,1,-0.9090909090909918,-0.31851435699655894)"><svg viewBox="0 0 396 69" data-background-color="#ffffff" preserveAspectRatio="xMidYMid meet" height="261" width="1500" xmlns="http://www.w3.org/2000/svg" xmlns:xlink="http://www.w3.org/1999/xlink"><g id="tight-bounds" transform="matrix(1,0,0,1,0.2400000000000091,0.08420494495311459)"><svg viewBox="0 0 395.52 68.83159011009379" height="68.83159011009379" width="395.52"><g><svg viewBox="0 0 496.7321049192671 86.4453394021215" height="68.83159011009379" width="395.52"><g transform="matrix(1,0,0,1,0,11.94722129218901)"><svg viewBox="0 0 395.52 62.550896817743485" height="62.550896817743485" width="395.52"><g id="textblocktransform"><svg viewBox="0 0 395.52 62.550896817743485" height="62.550896817743485" width="395.52" id="textblock"><g><svg viewBox="0 0 395.52 62.550896817743485" height="62.550896817743485" width="395.52"><g transform="matrix(1,0,0,1,0,0)"><svg width="395.52" viewBox="2 -32.35 207.38 32.800000000000004" height="62.550896817743485" data-palette-color="#ffffff"><path d="M5.35 0L2-0.35Q4.1-8.1 6.65-16.18 9.2-24.25 11.65-30.7L11.65-30.7 17.9-30.7Q20.35-24.25 22.9-16.18 25.45-8.1 27.55-0.35L27.55-0.35 24.2 0Q23.05-4.65 21.35-10.45L21.35-10.45 8.15-10.45Q6.25-3.6 5.35 0L5.35 0ZM9-13.25L20.45-13.25Q17.5-23.25 15.85-27.65L15.85-27.65 13.65-27.65Q11.75-22.5 9-13.25L9-13.25ZM33.55-27.7L33.55-32.35 36.7-32.35 36.7-27.7 33.55-27.7ZM33.6 0L33.6-23.35 36.55-23.35 36.55 0 33.6 0ZM59.74 0L59.74-30.7 62.89-30.7 62.89-2.9 76.99-2.9 76.99 0 59.74 0ZM91.29 0.45Q81.19 0.45 81.19-11.55L81.19-11.55Q81.19-17.3 83.77-20.55 86.34-23.8 91.29-23.8L91.29-23.8Q95.39-23.8 97.59-21.35 99.79-18.9 99.79-14.55L99.79-14.55Q99.79-14.05 99.69-12.95L99.69-12.95 97.14-10.4 84.14-10.5Q84.24-6.35 86.02-4.28 87.79-2.2 91.44-2.2L91.44-2.2Q93.64-2.2 95.19-2.68 96.74-3.15 98.39-4.15L98.39-4.15 99.39-1.8Q97.54-0.7 95.72-0.13 93.89 0.45 91.29 0.45L91.29 0.45ZM84.09-12.75L96.69-12.95Q96.99-14.15 96.99-15.35L96.99-15.35Q96.99-18.05 95.49-19.6 93.99-21.15 91.09-21.15L91.09-21.15Q87.39-21.15 85.84-19.1 84.29-17.05 84.09-12.75L84.09-12.75ZM111.14 0.45Q107.89 0.45 106.16-1.13 104.44-2.7 104.44-5.4L104.44-5.4Q104.44-9.15 107.19-11.03 109.94-12.9 114.89-12.9L114.89-12.9Q116.54-12.9 118.74-12.7L118.74-12.7 118.74-16.1Q118.74-19.1 117.54-20.23 116.34-21.35 113.34-21.35L113.34-21.35Q111.24-21.35 109.49-21.1L109.49-21.1 108.99-17.5 106.74-17.5Q106.19-19.05 106.19-20.55L106.19-20.55 106.19-21.5Q107.79-22.4 110.11-23.1 112.44-23.8 114.54-23.8L114.54-23.8Q117.99-23.8 119.89-21.93 121.79-20.05 121.79-16.55L121.79-16.55 121.79 0 119.19 0 118.99-3.3 118.59-3.3Q117.29-1.55 115.36-0.55 113.44 0.45 111.14 0.45L111.14 0.45ZM111.64-2Q113.84-2 115.74-3.05 117.64-4.1 118.89-5.95L118.89-5.95 118.89-10.4Q116.64-10.8 113.89-10.8L113.89-10.8Q110.59-10.8 108.74-10.25L108.74-10.25Q108.14-9.1 107.86-8.08 107.59-7.05 107.59-5.85L107.59-5.85Q107.59-3.7 108.61-2.85 109.64-2 111.64-2L111.64-2ZM129.44 0L129.44-23.3 131.89-23.3 132.14-18.8 132.59-18.8Q133.74-21 135.81-22.3 137.89-23.6 140.24-23.6L140.24-23.6Q140.59-23.6 141.11-23.23 141.64-22.85 141.84-22.5L141.84-22.5 141.49-20.15 139.44-20.15Q136.89-20.15 135.06-19 133.24-17.85 132.44-15.75L132.44-15.75 132.44 0 129.44 0ZM147.43 0L147.43-23.4 149.98-23.4 150.23-19.9 150.58-19.9Q154.48-23.8 159.23-23.8L159.23-23.8Q162.38-23.8 163.91-22.53 165.43-21.25 165.43-18.3L165.43-18.3 165.43 0 162.43 0 162.43-20.5Q160.88-21.05 158.68-21.05L158.68-21.05Q156.18-21.05 154.06-20.13 151.93-19.2 150.43-17.6L150.43-17.6 150.43 0 147.43 0ZM182.08 0.45Q171.98 0.45 171.98-11.55L171.98-11.55Q171.98-17.3 174.56-20.55 177.13-23.8 182.08-23.8L182.08-23.8Q186.18-23.8 188.38-21.35 190.58-18.9 190.58-14.55L190.58-14.55Q190.58-14.05 190.48-12.95L190.48-12.95 187.93-10.4 174.93-10.5Q175.03-6.35 176.81-4.28 178.58-2.2 182.23-2.2L182.23-2.2Q184.43-2.2 185.98-2.68 187.53-3.15 189.18-4.15L189.18-4.15 190.18-1.8Q188.33-0.7 186.51-0.13 184.68 0.45 182.08 0.45L182.08 0.45ZM174.88-12.75L187.48-12.95Q187.78-14.15 187.78-15.35L187.78-15.35Q187.78-18.05 186.28-19.6 184.78-21.15 181.88-21.15L181.88-21.15Q178.18-21.15 176.63-19.1 175.08-17.05 174.88-12.75L174.88-12.75ZM196.98 0L196.98-23.3 199.43-23.3 199.68-18.8 200.13-18.8Q201.28-21 203.35-22.3 205.43-23.6 207.78-23.6L207.78-23.6Q208.13-23.6 208.65-23.23 209.18-22.85 209.38-22.5L209.38-22.5 209.03-20.15 206.98-20.15Q204.43-20.15 202.6-19 200.78-17.85 199.98-15.75L199.98-15.75 199.98 0 196.98 0Z" opacity="1" transform="matrix(1,0,0,1,0,0)" fill="#ffffff" class="wordmark-text-0" data-fill-palette-color="primary" id="text-0"></path></svg></g></svg></g></svg></g></svg></g><g transform="matrix(1,0,0,1,410.28676551714557,0)"><svg viewBox="0 0 86.4453394021215 86.4453394021215" height="86.4453394021215" width="86.4453394021215"><g data-palette-color="#ffffff"><rect width="23.62839276991321" height="86.4453394021215" fill="#ffffff" stroke="transparent" data-fill-palette-color="accent" x="0" fill-opacity="1"></rect><rect width="23.62839276991321" height="86.4453394021215" fill="#ffffff" stroke="transparent" data-fill-palette-color="accent" x="28.815113134040498" fill-opacity="0.75"></rect><rect width="23.62839276991321" height="86.4453394021215" fill="#ffffff" stroke="transparent" data-fill-palette-color="accent" x="57.630226268080996" fill-opacity="0.5"></rect></g></svg></g></svg></g><defs></defs></svg><rect width="395.52" height="68.83159011009379" fill="none" stroke="none" visibility="hidden"></rect></g></svg></g></svg>